<svg xmlns="http://www.w3.org/2000/svg" width="19.5" height="15.624" viewBox="0 0 19.5 15.624">
  <path id="Twitter" fill-rule="evenodd" d="M578.494,932.048a8.069,8.069,0,0,1-2.3.621,3.961,3.961,0,0,0,1.759-2.181,8.058,8.058,0,0,1-2.542.956,4.017,4.017,0,0,0-2.921-1.245,3.973,3.973,0,0,0-4,3.944,3.852,3.852,0,0,0,.1.9,11.413,11.413,0,0,1-8.247-4.122,3.914,3.914,0,0,0,1.238,5.268,4.061,4.061,0,0,1-1.813-.492v0.048a3.96,3.96,0,0,0,3.211,3.868,3.985,3.985,0,0,1-1.055.139,4.037,4.037,0,0,1-.752-0.07,3.994,3.994,0,0,0,3.737,2.738,8.178,8.178,0,0,1-5.924,1.634,11.454,11.454,0,0,0,6.133,1.772A11.221,11.221,0,0,0,576.509,934.6c0-.172,0-0.342-0.011-0.511a8,8,0,0,0,2-2.042" transform="translate(-559 -930.188)"/>
</svg>
